<?xml version="1.0" encoding="UTF-8" standalone="no"?>
<svg
   xmlns:dc="http://purl.org/dc/elements/1.1/"
   xmlns:cc="http://creativecommons.org/ns#"
   xmlns:rdf="http://www.w3.org/1999/02/22-rdf-syntax-ns#"
   xmlns:svg="http://www.w3.org/2000/svg"
   xmlns="http://www.w3.org/2000/svg"
   id="svg983"
   version="1.1"
   viewBox="0 0 92.604159 92.604172"
   height="350"
   width="350">
  <defs
     id="defs977" />
  <metadata
     id="metadata980">
    <rdf:RDF>
      <cc:Work
         rdf:about="">
        <dc:format>image/svg+xml</dc:format>
        <dc:type
           rdf:resource="http://purl.org/dc/dcmitype/StillImage" />
        <dc:title></dc:title>
      </cc:Work>
    </rdf:RDF>
  </metadata>
  <g
     transform="translate(-260.44285,229.57063)"
     id="layer1">
    <g
       transform="translate(4.3922303,-9.2146217)"
       id="g5243">
      <g
         id="g5215"
         transform="matrix(0.46175087,-0.70783565,0.70783565,0.46175087,275.51591,136.31996)">
        <circle
           transform="rotate(40.303181)"
           r="10.955237"
           cy="-375.15384"
           cx="135.2751"
           id="path1063"
           style="opacity:1;fill:#729fcf;fill-opacity:1;stroke:#729fcf;stroke-width:0.35826373;stroke-linecap:round;stroke-linejoin:round;stroke-miterlimit:4;stroke-dasharray:none;stroke-dashoffset:0;stroke-opacity:1" />
        <circle
           transform="rotate(40.303181)"
           style="opacity:1;fill:#729fcf;fill-opacity:1;stroke:#729fcf;stroke-width:0.35826367;stroke-linecap:round;stroke-linejoin:round;stroke-miterlimit:4;stroke-dasharray:none;stroke-dashoffset:0;stroke-opacity:1"
           id="circle1065"
           cx="113.01772"
           cy="-356.36041"
           r="10.955237" />
        <circle
           transform="rotate(40.303181)"
           style="opacity:1;fill:#729fcf;fill-opacity:1;stroke:#729fcf;stroke-width:0.35826367;stroke-linecap:round;stroke-linejoin:round;stroke-miterlimit:4;stroke-dasharray:none;stroke-dashoffset:0;stroke-opacity:1"
           id="circle1069"
           cx="107.58472"
           cy="-384.85123"
           r="10.955237" />
        <path
           id="path5183"
           d="m 325.58606,-214.37663 -3.49405,6.17398"
           style="fill:#729fcf;fill-rule:evenodd;stroke:#729fcf;stroke-width:4.17589808;stroke-linecap:butt;stroke-linejoin:miter;stroke-miterlimit:4;stroke-dasharray:none;stroke-opacity:1" />
        <path
           id="path5185"
           d="m 334.87162,-198.62839 -7.22017,-0.0159"
           style="fill:#729fcf;fill-rule:evenodd;stroke:#729fcf;stroke-width:4.17589808;stroke-linecap:butt;stroke-linejoin:miter;stroke-miterlimit:4;stroke-dasharray:none;stroke-opacity:1" />
        <path
           id="path5187"
           d="m 340.28375,-208.05344 -3.75904,-6.4081"
           style="fill:#729fcf;fill-rule:evenodd;stroke:#729fcf;stroke-width:4.17589808;stroke-linecap:butt;stroke-linejoin:miter;stroke-miterlimit:4;stroke-dasharray:none;stroke-opacity:1" />
      </g>
      <path
         id="path5207"
         d="m 308.39016,-136.96646 c -1.24507,-1.19947 -3.46065,-0.80397 -2.18563,-3.05456 1.10087,-1.90569 0.82488,-3.13532 -1.4849,-3.09546 -1.7109,-0.67174 -0.25381,1.50952 -1.70632,0.99443 -1.26098,2.00832 -5.79042,0.40279 -7.97391,-0.4318 -0.82975,-0.98152 -0.50932,-2.17045 -2.58508,-1.50699 -0.62586,1.45715 -3.62278,0.80169 -2.65081,-1.35395 -2.97727,-2.15187 -6.62697,-3.29734 -10.26001,-3.46314 -2.3456,-0.0219 -6.62385,1.5229 -7.13785,-1.56466 1.59662,-2.93077 4.61847,-0.82675 6.27189,-2.75111 3.38464,0.32759 7.04775,2.23903 10.40656,1.66553 -1.6366,-3.70462 0.32577,-6.57169 1.30757,-10.12734 0.33495,-3.60632 3.84986,-5.49091 4.98286,-8.75574 1.14925,-3.19675 3.28208,-5.51861 4.28492,-8.51904 1.58672,-2.15538 4.31763,-4.09487 4.65662,-5.54504 0.39303,-3.22527 3.30475,-6.13148 5.37081,-8.9789 1.05384,-3.29607 2.97711,-5.70951 4.38389,-9.02541 2.3684,-2.46935 2.73311,-5.15094 5.54876,-7.00018 3.14245,-1.73987 6.02119,-1.34182 9.09523,-1.03045 0.95247,1.55264 3.15601,0.52027 4.2189,2.62393 1.55651,-0.13997 -0.0851,1.71725 1.78894,0.82727 -0.18311,3.9557 5.51886,3.41625 8.02612,4.78398 3.06409,1.63211 -0.89668,6.20947 -3.23296,7.2864 -2.29824,-0.1346 -5.02354,1.64339 -7.5608,2.12868 -1.64997,2.63862 0.0307,6.48394 -1.83264,8.83469 -0.7906,3.20186 0.68421,5.58209 1.88987,8.09291 -0.66994,5.40786 0.12828,10.82956 -0.21538,16.24885 0.60092,3.14778 -1.02213,6.64229 0.83118,9.51111 -0.99408,3.81008 2.89298,5.45887 3.75658,8.62594 -1.13252,2.40474 -4.51704,0.39075 -5.70856,1.94241 -2.46561,-0.90977 -1.58943,-4.72249 -2.6687,-5.1813 0.0531,-3.7405 -1.72286,-7.2755 -0.96133,-11.06078 -1.75272,-1.92464 0.21843,-6.71044 -2.73439,-6.63518 -0.76518,1.61505 -1.86941,1.58263 -1.45445,3.22697 -2.81668,2.7585 -2.11907,7.36117 -5.5782,9.77073 -1.39482,2.58211 -6.16285,2.26263 -5.05492,5.59046 0.0269,0.91579 1.74597,3.9724 1.27713,5.5496 -0.66829,0.2207 -2.44224,-0.62452 -1.05367,0.7146 -1.38561,-0.32928 -2.88326,-0.19506 -4.05713,0.66254 z m 2.66684,-0.55308 0.0765,0.006 z m 0.29727,-0.0426 0.0765,0.006 z m 2.39233,-1.11737 c 0.0347,-0.19502 0.0347,0.1951 0,0 z m -0.93742,-4.10068 0.0307,0.0261 z m -8.53734,-0.0999 0.0504,-0.0541 z m 23.5747,-1.89192 c 0.0619,-0.25891 4.2e-4,0.36904 0,0 z m -0.004,-1.99545 c 0.0727,-0.1833 -0.01,0.29072 0,0 z m -47.3141,-1.83348 0.0765,0.006 z m 0.25459,0 0.0765,0.006 z m 7.95092,-2.9253 0.0307,0.0263 z m 38.21188,-3.26925 0.0307,0.0263 z m -5.94407,-1.99556 0.0307,0.0263 z m 0.0424,-0.21224 0.0307,0.0263 z m -31.2875,-2.43783 c 0.0347,-0.19507 0.0347,0.19502 0,0 z m -0.004,-0.32193 0.0307,0.0263 z m 42.50009,-4.71282 0.0307,0.0263 z m -0.12732,-1.48603 0.0307,0.0263 z m 0,-0.2972 0.0307,0.0263 z m -0.38227,-1.61338 0.0307,0.0263 z m 0,-0.33971 0.0307,0.0263 z m -0.0347,-3.45677 c 0.0347,-0.26805 0.0347,0.26805 0,0 z m 0.33308,-1.97782 0.0307,0.0268 z m 0.17007,-1.61336 0.0307,0.0268 z m -0.84916,-13.84125 0.0307,0.0268 z m 0.0428,-0.42457 0.0307,0.0269 z m 1.47255,-3.99623 0.16853,0.004 z m 5.4367,-1.06044 0.0765,0.004 z m 5.87046,-5.85493 0.0307,0.0268 z m 0.0474,-0.3361 c 0.0727,-0.1835 -0.01,0.29075 0,0 z m -17.36285,-10.36773 0.14745,0.002 z"
         style="fill:#000000;stroke-width:0.04245764" />
    </g>
  </g>
</svg>
