<?xml version="1.0" encoding="UTF-8" standalone="no"?>
<svg
   xmlns:dc="http://purl.org/dc/elements/1.1/"
   xmlns:cc="http://creativecommons.org/ns#"
   xmlns:rdf="http://www.w3.org/1999/02/22-rdf-syntax-ns#"
   xmlns:svg="http://www.w3.org/2000/svg"
   xmlns="http://www.w3.org/2000/svg"
   xmlns:xlink="http://www.w3.org/1999/xlink"
   xmlns:sodipodi="http://sodipodi.sourceforge.net/DTD/sodipodi-0.dtd"
   xmlns:inkscape="http://www.inkscape.org/namespaces/inkscape"
   viewBox="0 0 537.59997 124.80001"
   height="1.3in"
   width="5.5999999in"
   xml:space="preserve"
   id="svg2"
   version="1.1"
   sodipodi:docname="map.svg"
   inkscape:version="0.92.3 (2405546, 2018-03-11)"><sodipodi:namedview
   pagecolor="#ffffff"
   bordercolor="#666666"
   borderopacity="1"
   objecttolerance="10"
   gridtolerance="10"
   guidetolerance="10"
   inkscape:pageopacity="0"
   inkscape:pageshadow="2"
   inkscape:window-width="2866"
   inkscape:window-height="1889"
   id="namedview1009"
   showgrid="false"
   inkscape:zoom="1.9328494"
   inkscape:cx="194.74517"
   inkscape:cy="12.748888"
   inkscape:window-x="134"
   inkscape:window-y="55"
   inkscape:window-maximized="1"
   inkscape:current-layer="svg2"
   fit-margin-top="0"
   fit-margin-left="0"
   fit-margin-right="0"
   fit-margin-bottom="0"
   units="in" /><metadata
   id="metadata8"><rdf:RDF><cc:Work
       rdf:about=""><dc:format>image/svg+xml</dc:format><dc:type
         rdf:resource="http://purl.org/dc/dcmitype/StillImage" /><dc:title></dc:title></cc:Work></rdf:RDF></metadata><defs
   id="defs6"><clipPath
     id="clipPath18"
     clipPathUnits="userSpaceOnUse"><path
       style="clip-rule:evenodd"
       id="path16"
       d="M 0,0 H 1658.3333 V 374.8493 H 0 Z"
       inkscape:connector-curvature="0" /></clipPath><clipPath
     id="clipPath30"
     clipPathUnits="userSpaceOnUse"><path
       style="clip-rule:evenodd"
       id="path28"
       d="M 0,0 H 1658.3333 V 365.85291 H 0 Z"
       inkscape:connector-curvature="0" /></clipPath><clipPath
     id="clipPath86"
     clipPathUnits="userSpaceOnUse"><path
       style="clip-rule:evenodd"
       id="path84"
       d="M 61.355328,63.181999 H 303.83783 V 302.67089 H 61.355328 Z"
       inkscape:connector-curvature="0" /></clipPath><clipPath
     id="clipPath98"
     clipPathUnits="userSpaceOnUse"><path
       style="clip-rule:evenodd"
       id="path96"
       d="M 698.41919,64.107681 H 956.91528 V 301.80521 H 698.41919 Z"
       inkscape:connector-curvature="0" /></clipPath><clipPath
     id="clipPath134"
     clipPathUnits="userSpaceOnUse"><path
       style="clip-rule:evenodd"
       id="path132"
       d="m 1361.5907,98.720306 h 221.6345 V 267.1626 h -221.6345 z"
       inkscape:connector-curvature="0" /></clipPath></defs>


<g
   id="g949"
   transform="translate(4,-2)"><g
     style="stroke-width:2.08417106;stroke-miterlimit:4;stroke-dasharray:none"
     transform="matrix(0.95961412,0,0,0.95961412,0.52021179,8.1664702)"
     id="g32"><path
       inkscape:connector-curvature="0"
       id="path34"
       style="fill:none;stroke:#000000;stroke-width:2.08417106;stroke-linecap:butt;stroke-linejoin:miter;stroke-miterlimit:4;stroke-dasharray:none;stroke-opacity:1"
       d="m 121,61 h 88.63" /><path
       inkscape:connector-curvature="0"
       id="path36"
       style="fill:#000000;fill-opacity:1;fill-rule:nonzero;stroke:none;stroke-width:2.08417106;stroke-miterlimit:4;stroke-dasharray:none"
       d="m 214.88,61 -7,3.5 1.75,-3.5 -1.75,-3.5 z" /><path
       inkscape:connector-curvature="0"
       id="path38"
       style="fill:none;stroke:#000000;stroke-width:2.08417106;stroke-linecap:butt;stroke-linejoin:miter;stroke-miterlimit:4;stroke-dasharray:none;stroke-opacity:1"
       d="m 214.88,61 -7,3.5 1.75,-3.5 -1.75,-3.5 z" /></g><g
     transform="matrix(0.95961412,0,0,0.95961412,132.46715,55.66736)"
     id="g40"><path
   inkscape:connector-curvature="0"
   id="path42"
   style="fill:#ffffff;fill-opacity:1;fill-rule:nonzero;stroke:none"
   d="M 0,0 H 58 V 21 H 0 Z" /><text
   id="text46"
   style="font-variant:normal;font-weight:normal;font-size:18px;font-family:'Source Sans Pro';-inkscape-font-specification:SourceSansPro-Regular;writing-mode:lr-tb;fill:#000000;fill-opacity:1;fill-rule:nonzero;stroke:none"
   transform="translate(0,17)"><tspan
     id="tspan44"
     y="0"
     x="0 10.583939 20.825882 25.559845 37.205765 48.311691">BRINGS</tspan></text>


</g><path
     d="m 116.15371,66.22312 c 1e-5,1.88572 -0.0924,3.76689 -0.27724,5.64352 -0.18483,1.87664 -0.4612,3.73969 -0.82908,5.58917 -0.36789,1.84948 -0.82553,3.67648 -1.37292,5.48099 -0.54739,1.80451 -1.18191,3.57786 -1.90355,5.32002 -0.72163,1.74217 -1.5269,3.44478 -2.41581,5.10783 -0.88892,1.66305 -1.85722,3.27854 -2.90487,4.84645 -1.04764,1.56791 -2.1696,3.08071 -3.36588,4.53838 -1.19628,1.45769 -2.46112,2.85323 -3.794521,4.18662 -1.333394,1.33341 -2.728932,2.59825 -4.186613,3.79453 -1.457673,1.1963 -2.970469,2.31826 -4.538385,3.3659 -1.56791,1.04765 -3.183393,2.01593 -4.846443,2.90485 -1.663049,0.88891 -3.365663,1.69418 -5.107833,2.41581 -1.742164,0.72164 -3.515508,1.35616 -5.320019,1.90355 -1.804511,0.54739 -3.631514,1.00503 -5.480992,1.37292 -1.849478,0.36788 -3.712531,0.64425 -5.589171,0.82908 -1.876633,0.18482 -3.757802,0.27724 -5.643517,0.27724 -1.885708,0 -3.76688,-0.0924 -5.643512,-0.27724 -1.876637,-0.18483 -3.739693,-0.4612 -5.589175,-0.82908 -1.849479,-0.36789 -3.676474,-0.82553 -5.480989,-1.37292 -1.804515,-0.54739 -3.577858,-1.18191 -5.320033,-1.90355 -1.742171,-0.72163 -3.444781,-1.5269 -5.10783,-2.41581 -1.663052,-0.88892 -3.278532,-1.85721 -4.846444,-2.90486 -1.567912,-1.04764 -3.080705,-2.1696 -4.538382,-3.36589 -1.457675,-1.19628 -2.853214,-2.46112 -4.186614,-3.79453 -1.3334,-1.33339 -2.598242,-2.72893 -3.794526,-4.18662 C 12.873078,101.29181 11.751113,99.77901 10.703466,98.2111 9.6558197,96.64319 8.6875385,95.0277 7.7986195,93.36465 6.9097009,91.7016 6.1044262,89.99899 5.3827951,88.25682 4.6611641,86.51466 4.0266521,84.74131 3.4792585,82.9368 2.9318648,81.13229 2.4742259,79.30529 2.1063417,77.45581 1.7384574,75.60633 1.4620992,73.74328 1.2772672,71.86664 1.0924349,69.99001 1.0000188,68.10884 1.0000188,66.22312 c 0,-1.88571 0.092416,-3.76688 0.2772484,-5.64351 0.184832,-1.87664 0.4611902,-3.73969 0.8290745,-5.58918 0.3678842,-1.84947 0.8255231,-3.67647 1.3729168,-5.48098 0.5473936,-1.80452 1.1819056,-3.57786 1.9035366,-5.32004 0.7216311,-1.74217 1.5269058,-3.44478 2.4158253,-5.10783 0.888919,-1.66305 1.8572003,-3.27853 2.9048466,-4.84644 1.047646,-1.56791 2.169611,-3.08071 3.365895,-4.53838 1.196283,-1.45768 2.461125,-2.85322 3.794525,-4.18662 1.3334,-1.3334 2.728939,-2.59824 4.186614,-3.79452 1.457677,-1.19629 2.97047,-2.31825 4.538382,-3.3659 1.567912,-1.04764 3.183392,-2.01593 4.846444,-2.90484 1.663049,-0.88892 3.365659,-1.6942 5.10783,-2.41583 1.742175,-0.72163 3.515515,-1.35614 5.32003,-1.90353 1.804515,-0.5474 3.631513,-1.00504 5.480992,-1.3729198 1.849482,-0.36789 3.712538,-0.64424 5.589171,-0.82908 1.876636,-0.18483 3.757808,-0.27724 5.643516,-0.27724 1.885715,0 3.766884,0.0924 5.643517,0.27724 1.87664,0.18484 3.739693,0.46119 5.589171,0.82908 1.849478,0.3678798 3.676481,0.8255198 5.480992,1.3729198 1.804511,0.54739 3.577855,1.1819 5.320019,1.90353 1.74217,0.72163 3.444777,1.52691 5.107827,2.41583 1.663056,0.88892 3.278539,1.8572 4.846449,2.90484 1.567916,1.04765 3.080712,2.16961 4.538385,3.3659 1.457681,1.19628 2.853219,2.46112 4.186613,3.79452 1.333401,1.3334 2.598241,2.72894 3.794521,4.18662 1.19629,1.45767 2.31825,2.97047 3.36589,4.53838 1.04765,1.56791 2.01594,3.18339 2.90486,4.84644 0.88891,1.66305 1.69418,3.36566 2.41581,5.10783 0.72164,1.74218 1.35616,3.51552 1.90355,5.32003 0.54739,1.80452 1.00503,3.63152 1.37292,5.48099 0.36788,1.84949 0.64425,3.71254 0.82908,5.58918 0.18483,1.87663 0.27725,3.7578 0.27724,5.64351 z"
     style="fill:#ffffff;fill-opacity:1;fill-rule:nonzero;stroke:none;stroke-width:2;stroke-miterlimit:4;stroke-dasharray:none"
     id="path50"
     inkscape:connector-curvature="0" /><path
     d="m 23.193451,20.80168 c 1.487604,-1.15886 3.028417,-2.24202 4.622455,-3.24947 1.594036,-1.00747 3.23361,-1.93437 4.918711,-2.78074 1.685107,-0.84635 3.407639,-1.6081 5.167583,-2.28522 1.759944,-0.67712 3.548846,-1.26636 5.366689,-1.7677 1.817842,-0.50136 3.655873,-0.9124098 5.5141,-1.2331798 1.858236,-0.32077 3.727726,-0.54967 5.60845,-0.68675 1.880723,-0.13708 3.763635,-0.18166 5.648735,-0.13374 1.885105,0.0479 3.763321,0.18811 5.634648,0.42059 1.871327,0.23246 3.726756,0.55608 5.566289,0.9708598 1.839543,0.41475 3.654317,0.91868 5.444334,1.51177 1.790021,0.59307 3.546664,1.27245 5.269934,2.03812 1.723261,0.76568 3.404854,1.61397 5.044773,2.54487 1.639924,0.93089 3.230282,1.93991 4.771057,3.02706 1.540776,1.08716 3.024572,2.24721 4.451377,3.48015 1.426797,1.23295 2.789746,2.53284 4.088824,3.8997 1.29907,1.36687 2.52804,2.7941 3.68689,4.28171 1.15885,1.4876 2.24202,3.02841 3.24947,4.62245 1.00746,1.59403 1.93437,3.23361 2.78074,4.91871 0.84636,1.68511 1.6081,3.40764 2.28522,5.16758 0.67713,1.75995 1.26636,3.54885 1.76771,5.3667 0.50136,1.81784 0.91242,3.65588 1.23318,5.5141 0.32077,1.85824 0.54968,3.72772 0.68675,5.60844 0.13709,1.88072 0.18166,3.76363 0.13374,5.64874 -0.0479,1.8851 -0.18812,3.76332 -0.42059,5.63465 -0.23246,1.87133 -0.55608,3.72676 -0.97085,5.56629 -0.41477,1.83953 -0.9187,3.65431 -1.51178,5.44433 -0.59307,1.79002 -1.27245,3.54666 -2.03813,5.26993 -0.76567,1.72327 -1.61396,3.40487 -2.54486,5.04479 -0.93089,1.63991 -1.93992,3.23027 -3.02707,4.77104 -1.08715,1.54078 -2.24721,3.02458 -3.48015,4.45138 -1.23294,1.42681 -2.532835,2.78975 -3.899698,4.08884 -1.366858,1.29908 -2.794088,2.52804 -4.281698,3.68689 -1.487605,1.15885 -3.028424,2.24201 -4.622456,3.24946 -1.594036,1.00747 -3.233604,1.93438 -4.918711,2.78075 -1.685104,0.84636 -3.40763,1.6081 -5.167579,2.28523 -1.759949,0.67712 -3.548845,1.26635 -5.366692,1.76771 -1.817843,0.50136 -3.65588,0.91241 -5.514111,1.23317 -1.858233,0.32077 -3.727709,0.54969 -5.608432,0.68676 -1.880724,0.13708 -3.763636,0.18166 -5.648741,0.13373 -1.885103,-0.0479 -3.76332,-0.18812 -5.634649,-0.42058 -1.871328,-0.23247 -3.72676,-0.55609 -5.566292,-0.97086 -1.839532,-0.41477 -3.654308,-0.91869 -5.444328,-1.51177 -1.790019,-0.59308 -3.546662,-1.27245 -5.269932,-2.03813 -1.723267,-0.76567 -3.404861,-1.61396 -5.044783,-2.54486 -1.639923,-0.9309 -3.230272,-1.93992 -4.771053,-3.02708 -1.540781,-1.08715 -3.024572,-2.2472 -4.451374,-3.48015 -1.426803,-1.23294 -2.789744,-2.53285 -4.088826,-3.89971 -1.299084,-1.36686 -2.528049,-2.7941 -3.686897,-4.2817 C 11.996576,100.11893 10.913423,98.57811 9.905964,96.98408 8.8985002,95.39004 7.9715895,93.75047 7.1252248,92.06537 6.27886,90.38027 5.517113,88.65773 4.8399943,86.89779 4.1628756,85.13784 3.5736367,83.34895 3.072286,81.53111 2.5709317,79.71327 2.1598755,77.87523 1.8391149,76.017 1.5183502,74.15876 1.2894287,72.28928 1.1523524,70.40856 1.0152724,68.52784 0.9706951,66.64492 1.0186222,64.75982 1.0665432,62.87471 1.2067396,60.9965 1.43921,59.12517 c 0.2324631,-1.87133 0.5560833,-3.72676 0.9708546,-5.56629 0.4147667,-1.83954 0.9186926,-3.65431 1.5117736,-5.44432 0.593075,-1.79003 1.2724456,-3.54668 2.0381213,-5.26995 0.7656794,-1.72326 1.6139682,-3.40485 2.5448664,-5.04477 0.9308952,-1.63993 1.9399151,-3.23028 3.0270731,-4.77106 1.087158,-1.54078 2.247208,-3.02457 3.480148,-4.45138 1.232949,-1.4268 2.532842,-2.78975 3.899702,-4.08883 1.366861,-1.29908 2.794092,-2.52805 4.281702,-3.68689 z"
     style="fill:none;stroke:#000000;stroke-width:2;stroke-linecap:butt;stroke-linejoin:miter;stroke-miterlimit:4;stroke-dasharray:none;stroke-opacity:1"
     id="path52"
     inkscape:connector-curvature="0" /><g
     style="stroke-width:2.08417106;stroke-miterlimit:4;stroke-dasharray:none"
     transform="matrix(0.95961412,0,0,0.95961412,0.52021179,8.1664702)"
     id="g54"><path
       inkscape:connector-curvature="0"
       id="path56"
       style="fill:none;stroke:#000000;stroke-width:2.08417106;stroke-linecap:butt;stroke-linejoin:miter;stroke-miterlimit:4;stroke-dasharray:none;stroke-opacity:1"
       d="m 336,61 h 88.63" /><path
       inkscape:connector-curvature="0"
       id="path58"
       style="fill:#000000;fill-opacity:1;fill-rule:nonzero;stroke:none;stroke-width:2.08417106;stroke-miterlimit:4;stroke-dasharray:none"
       d="m 429.88,61 -7,3.5 1.75,-3.5 -1.75,-3.5 z" /><path
       inkscape:connector-curvature="0"
       id="path60"
       style="fill:none;stroke:#000000;stroke-width:2.08417106;stroke-linecap:butt;stroke-linejoin:miter;stroke-miterlimit:4;stroke-dasharray:none;stroke-opacity:1"
       d="m 429.88,61 -7,3.5 1.75,-3.5 -1.75,-3.5 z" /></g><g
     transform="matrix(0.95961412,0,0,0.95961412,356.05724,57.58659)"
     id="g62"><path
   inkscape:connector-curvature="0"
   id="path64"
   style="fill:#ffffff;fill-opacity:1;fill-rule:nonzero;stroke:none"
   d="M 0,0 H 21 V 21 H 0 Z" /><text
   id="text68"
   style="font-variant:normal;font-weight:normal;font-size:18px;font-family:'Source Sans Pro';-inkscape-font-specification:SourceSansPro-Regular;writing-mode:lr-tb;fill:#000000;fill-opacity:1;fill-rule:nonzero;stroke:none"
   transform="translate(0,17)"><tspan
     id="tspan66"
     y="0"
     x="0 9.2159271">TO</tspan></text>


</g><path
     d="m 322.47074,66.22312 c 3e-5,1.88572 -0.0924,3.76689 -0.27724,5.64352 -0.18485,1.87664 -0.46121,3.73969 -0.82911,5.58917 -0.36785,1.84948 -0.82549,3.67648 -1.37292,5.48099 -0.54737,1.80451 -1.18189,3.57786 -1.90353,5.32002 -0.72161,1.74217 -1.52687,3.44478 -2.41579,5.10783 -0.88895,1.66305 -1.85723,3.27854 -2.90488,4.84645 -1.04764,1.56791 -2.16961,3.08071 -3.36588,4.53838 -1.19627,1.45769 -2.46112,2.85323 -3.79453,4.18662 -1.33337,1.33341 -2.72893,2.59825 -4.18659,3.79453 -1.4577,1.1963 -2.97051,2.31826 -4.5384,3.3659 -1.5679,1.04765 -3.18338,2.01593 -4.84643,2.90485 -1.66304,0.88891 -3.36567,1.69418 -5.10787,2.41581 -1.74214,0.72164 -3.51547,1.35616 -5.32,1.90355 -1.80451,0.54739 -3.63152,1.00503 -5.48102,1.37292 -1.84944,0.36788 -3.7125,0.64425 -5.58915,0.82908 -1.87661,0.18482 -3.75777,0.27724 -5.6435,0.27724 -1.8857,0 -3.76689,-0.0924 -5.64353,-0.27724 -1.87662,-0.18483 -3.73971,-0.4612 -5.58921,-0.82908 -1.84947,-0.36789 -3.67645,-0.82553 -5.48097,-1.37292 -1.80452,-0.54739 -3.57786,-1.18191 -5.32003,-1.90355 -1.74216,-0.72163 -3.44477,-1.5269 -5.10783,-2.41581 -1.66305,-0.88892 -3.27855,-1.85721 -4.84646,-2.90486 -1.5679,-1.04764 -3.08069,-2.1696 -4.53837,-3.36589 -1.45766,-1.19628 -2.8532,-2.46112 -4.18661,-3.79453 -1.3334,-1.33339 -2.59824,-2.72893 -3.79452,-4.18662 -1.19627,-1.45767 -2.31824,-2.97047 -3.3659,-4.53838 -1.04763,-1.56791 -2.01592,-3.1834 -2.90482,-4.84645 -0.88892,-1.66305 -1.69421,-3.36566 -2.41587,-5.10783 -0.72161,-1.74216 -1.35612,-3.51551 -1.90351,-5.32002 -0.5474,-1.80451 -1.00504,-3.63151 -1.37293,-5.48099 -0.36787,-1.84948 -0.64422,-3.71253 -0.82905,-5.58917 -0.18482,-1.87663 -0.27722,-3.7578 -0.27724,-5.64352 2e-5,-1.88571 0.0924,-3.76688 0.27724,-5.64351 0.18483,-1.87664 0.46118,-3.73969 0.82906,-5.58918 0.3679,-1.84947 0.82554,-3.67647 1.37292,-5.48098 0.54739,-1.80452 1.1819,-3.57786 1.90351,-5.32004 0.72166,-1.74217 1.52695,-3.44478 2.41585,-5.10783 0.88892,-1.66305 1.85721,-3.27853 2.90484,-4.84644 1.04766,-1.56791 2.16961,-3.08071 3.36589,-4.53838 1.19629,-1.45768 2.46113,-2.85322 3.79453,-4.18662 1.33341,-1.3334 2.72895,-2.59824 4.18661,-3.79452 1.45768,-1.19629 2.97047,-2.31825 4.53837,-3.3659 1.56791,-1.04764 3.1834,-2.01593 4.84645,-2.90484 1.66305,-0.88892 3.36568,-1.6942 5.10784,-2.41583 1.74217,-0.72163 3.51551,-1.35614 5.32003,-1.90353 1.80452,-0.5474 3.6315,-1.00504 5.48097,-1.3729198 1.8495,-0.36789 3.71259,-0.64424 5.58921,-0.82908 1.87664,-0.18483 3.75783,-0.27724 5.64353,-0.27724 1.88573,0 3.76689,0.0924 5.6435,0.27724 1.87665,0.18484 3.73971,0.46119 5.58915,0.82908 1.8495,0.3678798 3.67651,0.8255198 5.48099,1.3729198 1.80453,0.54739 3.57789,1.1819 5.32003,1.90353 1.7422,0.72163 3.44483,1.52691 5.10787,2.41583 1.66305,0.88892 3.27853,1.8572 4.84643,2.90484 1.56789,1.04765 3.0807,2.16961 4.5384,3.3659 1.45766,1.19628 2.85322,2.46112 4.18659,3.79452 1.33341,1.3334 2.59826,2.72894 3.79453,4.18662 1.19627,1.45767 2.31824,2.97047 3.36588,4.53838 1.04765,1.56791 2.01593,3.18339 2.90488,4.84644 0.88892,1.66305 1.69418,3.36566 2.41579,5.10783 0.72164,1.74218 1.35616,3.51552 1.90353,5.32003 0.54743,1.80452 1.00507,3.63152 1.37292,5.48099 0.3679,1.84949 0.64426,3.71254 0.82911,5.58918 0.18485,1.87663 0.27727,3.7578 0.27724,5.64351 z"
     style="fill:#ffffff;fill-opacity:1;fill-rule:nonzero;stroke:none;stroke-width:2;stroke-miterlimit:4;stroke-dasharray:none"
     id="path72"
     inkscape:connector-curvature="0" /><path
     d="m 237.28631,15.69675 c 1.65479,-0.90421 3.34992,-1.7251 5.08538,-2.46272 1.73548,-0.73762 3.5029,-1.38842 5.30231,-1.95238 1.79939,-0.564 3.6221,-1.03843 5.46813,-1.4232898 1.846,-0.3849 3.70644,-0.67838 5.58129,-0.88046 1.87484,-0.20211 3.75508,-0.31184 5.64071,-0.32919 1.88565,-0.0173 3.7676,0.0578 5.64585,0.22534 1.87825,0.16755 3.74378,0.42676 5.59655,0.7776 1.85279,0.3508398 3.68392,0.7916498 5.4934,1.3224298 1.80946,0.53074 3.58857,1.14893 5.3373,1.85449 1.74876,0.70559 3.45871,1.49518 5.12986,2.36874 1.67115,0.87357 3.29547,1.82694 4.87296,2.86012 1.57747,1.03317 3.10053,2.14119 4.56916,3.32403 1.46862,1.18279 2.87573,2.43473 4.22135,3.75582 1.34561,1.32107 2.62324,2.70492 3.8329,4.15154 1.20962,1.44658 2.34547,2.94898 3.40751,4.50721 1.062,1.55819 2.0451,3.16468 2.9493,4.8195 0.90417,1.65479 1.7251,3.34993 2.46273,5.08539 0.73762,1.73545 1.38843,3.50292 1.95242,5.30233 0.56396,1.7994 1.03838,3.6221 1.42327,5.46811 0.38489,1.84602 0.67837,3.70646 0.88046,5.58131 0.20208,1.87485 0.31181,3.75509 0.32917,5.64072 0.0174,1.88564 -0.0577,3.7676 -0.22532,5.64585 -0.16756,1.87824 -0.42676,3.74376 -0.77761,5.59655 -0.35086,1.85277 -0.79167,3.6839 -1.32243,5.49339 -0.53077,1.80947 -1.14894,3.58857 -1.85451,5.33731 -0.70558,1.74872 -1.49515,3.45868 -2.36873,5.12985 -0.87358,1.67114 -1.82696,3.29547 -2.86014,4.87294 -1.03318,1.57749 -2.14117,3.10055 -3.32398,4.5692 -1.18282,1.4686 -2.43477,2.87572 -3.75585,4.22133 -1.32107,1.34562 -2.70491,2.62325 -4.15152,3.8329 -1.44661,1.20963 -2.94902,2.34546 -4.50723,3.40749 -1.55822,1.06201 -3.16472,2.0451 -4.81952,2.94931 -1.6548,0.90416 -3.34992,1.7251 -5.08538,2.46272 -1.73546,0.73763 -3.50288,1.38844 -5.30229,1.95242 -1.79941,0.56396 -3.62211,1.03839 -5.46812,1.42328 -1.84602,0.38489 -3.70645,0.67838 -5.5813,0.88049 -1.87486,0.20207 -3.75511,0.31177 -5.64074,0.32914 -1.88563,0.0174 -3.76758,-0.0578 -5.64582,-0.22531 -1.87826,-0.16757 -3.74377,-0.42676 -5.59656,-0.77761 -1.85279,-0.35086 -3.68392,-0.79166 -5.49339,-1.32243 -1.80948,-0.53078 -3.58859,-1.14895 -5.33732,-1.8545 -1.74874,-0.70558 -3.45868,-1.49515 -5.12984,-2.36872 -1.67115,-0.87358 -3.29548,-1.82696 -4.87296,-2.86014 -1.57749,-1.03317 -3.10055,-2.14119 -4.56917,-3.324 -1.46862,-1.18282 -2.87573,-2.43477 -4.22135,-3.75585 -1.34561,-1.32108 -2.62323,-2.70491 -3.83287,-4.15152 -1.20966,-1.44662 -2.34551,-2.94906 -3.40753,-4.50725 -1.06203,-1.55822 -2.04514,-3.16474 -2.94932,-4.81953 -0.90419,-1.65481 -1.72509,-3.34993 -2.46271,-5.08537 -0.73764,-1.73547 -1.38844,-3.50291 -1.9524,-5.30227 -0.56398,-1.79942 -1.03842,-3.62214 -1.42328,-5.46813 -0.3849,-1.84603 -0.67839,-3.70648 -0.88047,-5.5813 -0.2021,-1.87488 -0.31183,-3.75514 -0.32918,-5.64076 -0.0173,-1.88564 0.0578,-3.76758 0.22532,-5.64582 0.16757,-1.87824 0.42677,-3.74377 0.77761,-5.59658 0.35086,-1.85277 0.79166,-3.68392 1.32244,-5.49337 0.53076,-1.80948 1.14893,-3.58859 1.8545,-5.33732 0.70558,-1.74872 1.49515,-3.45868 2.36874,-5.12983 0.87357,-1.67116 1.82695,-3.29548 2.86011,-4.87299 1.03318,-1.57749 2.14118,-3.10053 3.32401,-4.56913 1.18282,-1.46863 2.43477,-2.87575 3.75585,-4.22134 1.32106,-1.34565 2.7049,-2.62328 4.15153,-3.83289 1.4466,-1.20966 2.949,-2.3455 4.5072,-3.40754 1.55821,-1.06205 3.16471,-2.04516 4.81952,-2.94931 z"
     style="fill:none;stroke:#000000;stroke-width:2;stroke-linecap:butt;stroke-linejoin:miter;stroke-miterlimit:4;stroke-dasharray:none;stroke-opacity:1"
     id="path74"
     inkscape:connector-curvature="0" /><path
     d="m 528.78778,66.22312 c 0,1.88572 -0.0924,3.76689 -0.27727,5.64352 -0.18479,1.87664 -0.46118,3.73969 -0.82906,5.58917 -0.36788,1.84948 -0.82549,3.67648 -1.37295,5.48099 -0.54739,1.80451 -1.18195,3.57786 -1.90358,5.32002 -0.72165,1.74217 -1.52688,3.44478 -2.41579,5.10783 -0.88892,1.66305 -1.8572,3.27854 -2.90485,4.84645 -1.04764,1.56791 -2.16956,3.08071 -3.36585,4.53838 -1.1963,1.45769 -2.46112,2.85323 -3.79453,4.18662 -1.33335,1.33341 -2.72891,2.59825 -4.1866,3.79453 -1.45769,1.1963 -2.9705,2.31826 -4.53843,3.3659 -1.56792,1.04765 -3.18341,2.01593 -4.84645,2.90485 -1.66304,0.88891 -3.36568,1.69418 -5.10784,2.41581 -1.74217,0.72164 -3.51547,1.35616 -5.32,1.90355 -1.80452,0.54739 -3.6315,1.00503 -5.481,1.37292 -1.84943,0.36788 -3.7125,0.64425 -5.58912,0.82908 -1.87661,0.18482 -3.7578,0.27724 -5.64353,0.27724 -1.8857,0 -3.76689,-0.0924 -5.6435,-0.27724 -1.87665,-0.18483 -3.73974,-0.4612 -5.58923,-0.82908 -1.84948,-0.36789 -3.67646,-0.82553 -5.48094,-1.37292 -1.80453,-0.54739 -3.57789,-1.18191 -5.32008,-1.90355 -1.74217,-0.72163 -3.44478,-1.5269 -5.10779,-2.41581 -1.66308,-0.88892 -3.27856,-1.85721 -4.84648,-2.90486 -1.5679,-1.04764 -3.08068,-2.1696 -4.53832,-3.36589 -1.45769,-1.19628 -2.85325,-2.46112 -4.18665,-3.79453 -1.33338,-1.33339 -2.59823,-2.72893 -3.79453,-4.18662 -1.19627,-1.45767 -2.31824,-2.97047 -3.36588,-4.53838 -1.04765,-1.56791 -2.01593,-3.1834 -2.90488,-4.84645 -0.88889,-1.66305 -1.69418,-3.36566 -2.41581,-5.10783 -0.72162,-1.74216 -1.35614,-3.51551 -1.90353,-5.32002 -0.54741,-1.80451 -1.00505,-3.63151 -1.37292,-5.48099 -0.36785,-1.84948 -0.64418,-3.71253 -0.82903,-5.58917 -0.18483,-1.87663 -0.27725,-3.7578 -0.27727,-5.64352 2e-5,-1.88571 0.0924,-3.76688 0.27727,-5.64351 0.18485,-1.87664 0.46118,-3.73969 0.82903,-5.58918 0.36787,-1.84947 0.82551,-3.67647 1.37292,-5.48098 0.54739,-1.80452 1.18191,-3.57786 1.90353,-5.32004 0.72163,-1.74217 1.52692,-3.44478 2.41584,-5.10783 0.88892,-1.66305 1.8572,-3.27853 2.90482,-4.84644 1.04767,-1.56791 2.16964,-3.08071 3.36591,-4.53838 1.1963,-1.45768 2.46115,-2.85322 3.79453,-4.18662 1.3334,-1.3334 2.72896,-2.59824 4.18665,-3.79452 1.45764,-1.19629 2.97042,-2.31825 4.53832,-3.3659 1.56792,-1.04764 3.1834,-2.01593 4.84645,-2.90484 1.66304,-0.88892 3.36565,-1.6942 5.10782,-2.41583 1.74219,-0.72163 3.51555,-1.35614 5.32008,-1.90353 1.80451,-0.5474 3.63149,-1.00504 5.48097,-1.3729198 1.84949,-0.36789 3.71255,-0.64424 5.5892,-0.82908 1.87661,-0.18483 3.7578,-0.27724 5.6435,-0.27724 1.88573,0 3.76692,0.0924 5.64353,0.27724 1.87662,0.18484 3.73969,0.46119 5.58912,0.82908 1.8495,0.3678798 3.67648,0.8255198 5.481,1.3729198 1.80453,0.54739 3.57783,1.1819 5.32,1.90353 1.74216,0.72163 3.4448,1.52691 5.10784,2.41583 1.66304,0.88892 3.27853,1.8572 4.84645,2.90484 1.56793,1.04765 3.08074,2.16961 4.53843,3.3659 1.45769,1.19628 2.85325,2.46112 4.1866,3.79452 1.33341,1.3334 2.59823,2.72894 3.79453,4.18662 1.19629,1.45767 2.31821,2.97047 3.36585,4.53838 1.04765,1.56791 2.01593,3.18339 2.9049,4.84644 0.88892,1.66305 1.69415,3.36566 2.41579,5.10783 0.72164,1.74218 1.3562,3.51552 1.90359,5.32003 0.5474,1.80452 1.00501,3.63152 1.37289,5.48099 0.36788,1.84949 0.64427,3.71254 0.82906,5.58918 0.18485,1.87663 0.27727,3.7578 0.27727,5.64351 z"
     style="fill:#ffffff;fill-opacity:1;fill-rule:nonzero;stroke:none;stroke-width:2;stroke-miterlimit:4;stroke-dasharray:none"
     id="path76"
     inkscape:connector-curvature="0" /><path
     d="m 435.375,21.15785 c 1.47594,-1.17367 3.00584,-2.27219 4.58974,-3.29552 1.58385,-1.02339 3.21409,-1.96662 4.89064,-2.8298 1.67655,-0.86318 3.39136,-1.64214 5.14449,-2.33678 1.75308,-0.69469 3.53602,-1.30175 5.34875,-1.82126 1.81275,-0.5195 3.64656,-0.9489498 5.50148,-1.2882898 1.85494,-0.33933 3.72203,-0.58694 5.60129,-0.74282 1.87926,-0.15589 3.76161,-0.21933 5.6471,-0.19025 1.8855,0.0291 3.76501,0.15046 5.63857,0.36421 1.87353,0.2137 3.73212,0.51876 5.57571,0.91513 1.84362,0.3963498 3.66335,0.8821098 5.45921,1.4572698 1.79587,0.57515 3.55923,1.23693 5.29006,1.98532 1.73083,0.7484 3.42084,1.57985 5.06998,2.49429 1.64916,0.91445 3.2495,1.90748 4.80109,2.97918 1.55157,1.0717 3.04688,2.21684 4.48596,3.43546 1.43903,1.21858 2.81492,2.50478 4.1276,3.85857 1.31266,1.35379 2.55586,2.76867 3.72954,4.24463 1.17366,1.47593 2.2722,3.00584 3.29553,4.5897 1.02336,1.58389 1.96664,3.21414 2.82983,4.8907 0.86317,1.67656 1.64209,3.39137 2.33676,5.14443 0.69471,1.7531 1.30181,3.53603 1.82133,5.34879 0.51951,1.81274 0.94893,3.64657 1.28825,5.50146 0.33935,1.85496 0.58694,3.72205 0.74283,5.60132 0.15588,1.87925 0.21928,3.7616 0.19018,5.64707 -0.029,1.8855 -0.15044,3.76504 -0.36418,5.6386 -0.21375,1.87354 -0.51879,3.73212 -0.91513,5.57573 -0.39636,1.84357 -0.88211,3.6633 -1.45726,5.45916 -0.57514,1.79587 -1.23691,3.55922 -1.9853,5.29008 -0.74841,1.73082 -1.57983,3.42083 -2.49428,5.06998 -0.91445,1.64913 -1.90752,3.2495 -2.97921,4.80107 -1.07167,1.55159 -2.21683,3.04692 -3.43545,4.48596 -1.21863,1.43905 -2.50485,2.8149 -3.85864,4.1276 -1.3538,1.31269 -2.76866,2.55587 -4.2446,3.72956 -1.47595,1.17366 -3.00583,2.2722 -4.58973,3.29552 -1.58389,1.02334 -3.21409,1.96662 -4.89063,2.82983 -1.67654,0.86319 -3.39137,1.64212 -5.14446,2.3368 -1.75309,0.69469 -3.53601,1.30178 -5.34874,1.82131 -1.81274,0.51951 -3.64658,0.94892 -5.50151,1.28825 -1.85494,0.33933 -3.72203,0.58694 -5.60127,0.74284 -1.87927,0.15586 -3.76165,0.21926 -5.64713,0.19021 -1.8855,-0.0291 -3.76503,-0.1505 -5.63858,-0.36422 -1.87356,-0.21374 -3.73215,-0.5188 -5.57574,-0.91516 -1.84357,-0.39632 -3.66329,-0.88206 -5.45914,-1.45719 -1.79587,-0.57515 -3.55922,-1.23693 -5.29006,-1.98533 -1.73083,-0.74839 -3.42083,-1.57982 -5.06998,-2.49426 -1.64916,-0.91447 -3.24953,-1.90755 -4.80112,-2.97925 -1.55157,-1.07169 -3.04688,-2.21683 -4.48594,-3.43544 -1.43907,-1.21862 -2.81495,-2.50483 -4.12765,-3.85864 -1.31267,-1.35378 -2.55586,-2.76867 -3.72952,-4.24461 -1.17368,-1.47595 -2.27221,-3.00587 -3.29555,-4.58973 -1.02334,-1.58387 -1.96661,-3.2141 -2.82976,-4.89061 -0.86319,-1.67657 -1.64211,-3.39138 -2.33681,-5.14448 -0.69469,-1.7531 -1.30177,-3.53598 -1.82128,-5.34871 -0.5195,-1.81273 -0.94894,-3.64659 -1.28827,-5.50151 -0.33932,-1.85493 -0.58693,-3.72203 -0.74282,-5.60129 -0.15589,-1.87927 -0.21931,-3.76166 -0.19025,-5.64716 0.0291,-1.8855 0.15045,-3.76504 0.36422,-5.63856 0.21373,-1.87357 0.51879,-3.73213 0.91513,-5.57573 0.39635,-1.84359 0.88212,-3.66328 1.45727,-5.45914 0.57514,-1.79586 1.23691,-3.55921 1.98529,-5.29009 0.74839,-1.73084 1.57985,-3.4208 2.49429,-5.06996 0.91445,-1.64916 1.90748,-3.24956 2.97918,-4.80113 1.07168,-1.55159 2.21685,-3.04688 3.43547,-4.48594 1.21862,-1.43906 2.5048,-2.81496 3.85862,-4.12762 1.35379,-1.3127 2.76866,-2.55588 4.2446,-3.72955 z"
     style="fill:none;stroke:#000000;stroke-width:2;stroke-linecap:butt;stroke-linejoin:miter;stroke-miterlimit:4;stroke-dasharray:none;stroke-opacity:1"
     id="path78"
     inkscape:connector-curvature="0" /><g
     transform="matrix(0.31999998,0,0,0.31999998,0.04040472,7.6866622)"
     id="g80"><g
       clip-path="url(#clipPath86)"
       id="g82"><g
         transform="matrix(0.85425681,0,0,0.85425687,-152.86339,-232.71457)"
         id="g88"><path
           inkscape:connector-curvature="0"
           id="path90"
           style="fill:#000000;fill-opacity:1;fill-rule:nonzero;stroke:none"
           d="m 468.23047,346.37891 0.55664,0.008 z m -7.99609,1.35742 c -6.35883,0.082 -12.72547,1.22488 -19.40625,4.92383 -5.93729,3.89944 -8.99164,8.78863 -12.08594,13.96093 h 4.35937 c 16.72537,0 26.45413,3.24302 32.93946,8.875 6.14401,5.63199 8.5332,12.96985 8.5332,21.67383 0,14.84802 -11.9458,25.9415 -28.8418,28.16016 v 0.33984 c 17.57871,4.43732 20.81964,15.70017 23.20899,29.35352 1.53601,8.87463 4.09661,15.19037 8.36328,19.45703 2.048,2.048 4.94949,3.58307 8.02148,3.75391 v 6.48632 h -12.6289 c -1.03626,0 -2.02921,-0.0186 -2.9961,-0.0488 -9.97174,0.55276 -11.27539,1.83685 -11.27539,9.94921 v 35.93363 c 0.045,-0.0908 0.0924,-0.17005 0.13672,-0.26367 11.16025,-0.28443 3.70953,17.80389 10.33398,25.07812 -2.87823,14.30658 3.83545,27.66736 3.63477,41.80469 4.07913,1.73407 0.76709,16.14355 10.08594,19.58203 4.50338,-5.86456 17.29577,1.74896 21.57617,-7.33984 -3.26401,-11.97004 -17.95636,-18.20325 -14.19922,-32.60352 -7.00464,-10.84277 -0.86941,-24.05011 -3.14062,-35.94726 1.29885,-20.48237 -1.71958,-40.97297 0.8125,-61.41211 -4.55683,-9.48972 -10.13068,-18.48636 -7.14258,-30.58789 7.04254,-8.88471 0.69162,-23.41788 6.92773,-33.39063 9.58966,-1.83417 19.88992,-8.55365 28.57617,-8.04492 8.83002,-4.07028 23.79956,-21.37045 12.21875,-27.53906 -9.47625,-5.16938 -31.02801,-3.13135 -30.33593,-18.08204 -7.08298,3.36371 -0.8769,-3.65597 -6.75977,-3.12695 -4.01721,-7.95083 -12.34543,-4.04776 -15.94531,-9.91601 -5.08307,-0.51487 -10.02493,-1.09311 -14.9707,-1.0293 v -6e-5 z m -1.8086,182.81836 z m -25.9414,-35.5918 h -0.51172 L 396.30273,593.0957 H 386.06445 L 350.3125,497.48242 c -0.39172,0.9288 -0.77106,1.86963 -1.11914,2.83789 -0.10568,0.30451 -0.21964,0.60404 -0.33594,0.90235 v 51.9375 c 0,13.82397 0.17084,20.47906 0.85352,26.62304 0.51199,5.97333 2.38931,8.70362 7.16797,9.04493 l 9.21679,0.85351 v 6.48633 h -38.44922 c -1.87963,7.03607 8.28302,8.92853 10.50977,3.74414 7.8454,-2.50757 6.63541,1.98566 9.77148,5.69531 8.25257,3.15436 25.37082,9.22333 30.13672,1.63281 5.48981,1.94678 -0.0172,-6.29864 6.44922,-3.75976 8.72989,-0.15064 9.77405,4.49853 5.61328,11.70117 -4.81897,8.50617 3.55399,7.01148 8.25977,11.54492 4.43667,-3.24133 10.09701,-3.75036 15.33398,-2.50586 -5.24814,-5.06122 1.45661,-1.86505 3.98243,-2.69922 1.772,-5.96106 -4.72449,-17.51532 -4.82618,-20.97656 -4.18744,-12.57763 13.83371,-11.36975 19.10547,-21.1289 1.09085,-27.46875 0.50196,-56.47431 0.50196,-84.45313 z m -104.8379,101.20508 c 0.1171,-0.43829 0.27677,-0.89526 0.49219,-1.37305 -0.92486,-0.66846 -1.87427,-1.30084 -2.83203,-1.91797 v 3.29102 z m -2.33984,-3.29102 v -3.19531 l 5.97266,-0.85351 c 3.92532,-0.51203 5.63253,-3.0716 6.14453,-9.04493 0.68268,-5.97332 0.85351,-12.62841 0.85351,-26.62304 v -36.30469 c -3.86435,4.88141 -7.30276,9.95392 -7.91601,16.55664 -3.71076,13.43866 -11.12699,24.27563 -4.94141,38.27734 -7.67425,1.31037 -15.76861,-0.81585 -23.79687,-2.97265 v 10.89648 c 0,1.43842 0.0452,2.646 0.16211,3.68945 8.3186,1.77051 16.35711,4.95789 23.52148,9.57422 z m -23.52148,-9.57422 c -4.09955,-0.87249 -8.26535,-1.40777 -12.42578,-1.59765 -4.18976,-0.0391 -10.00174,1.23047 -15.18165,1.36328 -0.5404,5.48413 -3.08178,6.17969 -13.34375,6.61328 v 6.48633 h 54.27149 v -6.48633 c -10.11487,-0.42743 -12.72971,-1.10828 -13.32031,-6.37891 z m -27.60743,-0.23437 c 0.0977,-0.99152 0.13868,-2.12232 0.13868,-3.45508 v -10.45703 c -4.4455,0.29828 -8.87906,1.02979 -11.9336,6.63672 1.02457,6.15448 6.01447,7.42364 11.79492,7.27539 z m 0.13868,-13.91211 c 4.33691,-0.29095 8.68554,-0.1701 11.77148,-3.76172 5.05908,0.48969 10.28311,1.91132 15.53516,3.32227 v -74.09571 c 0,-4.01522 0.30603,-6.34869 1.80859,-7.75976 3.86017,0.32504 7.52921,0.41992 10.79102,0.41992 5.98758,0 12.73803,-0.6283 19.44726,-1.81445 3.98184,1.05108 4.60742,3.35864 4.60742,9.15429 v 22.23438 c 3.91608,-4.94675 8.26612,-9.69818 10.58008,-15.63281 v -6.25977 h 0.51367 l 0.94141,2.51953 c 2.98538,-7.07843 7.09146,-13.11389 10.55273,-19.41406 h -5.17187 V 447.3457 c 0,-8.02133 1.36661,-8.87323 9.55859,-9.72656 v -6.48633 h -51.54101 v 6.48633 c 13.31201,0.85333 14.67578,1.70569 14.67578,10.06836 v 24.06445 c 0,3.20487 -0.70392,5.17261 -3.16016,6.31641 h -0.43164 v 0.19531 c -2.01016,0.79141 -5.13055,1.10944 -9.68945,1.14844 v -1.34375 h -9.77734 C 282.99097,470.69583 281.625,435.44052 281.625,424.30664 c 0,-17.40802 4.26614,-52.39453 34.13281,-52.39453 18.944,0 26.96549,16.04141 31.74414,30.71875 h 6.48633 v -31.06055 c -10.75201,-5.80267 -25.60132,-7.50976 -39.08398,-7.50976 v -0.002 c -54.61335,0 -63.48828,38.91284 -63.48828,62.46485 0,26.96533 10.07034,42.66705 23.04101,51.37109 0.0903,0.0605 0.18475,0.11179 0.27539,0.17188 h -13.89844 v 6.48437 c 12.11734,0.51202 13.48243,1.3663 13.48243,10.07031 v 74.53522 z m 86.54882,-91.08789 h 8.98438 c 2.21866,7.33868 6.14358,17.4079 9.04492,25.08789 l 20.31055,52.39453 h 0.51172 l 14.50586,-39.93555 c 3.71188,-10.17334 7.85131,-22.00491 10.97265,-30.89257 h -51.31445 v -6.48633 c 12.11731,-0.512 13.48242,-1.36435 13.48242,-10.06836 v -33.13086 c -2.22842,3.92859 -3.86664,7.95535 -4.375,12.12695 -1.28122,5.48096 -11.60257,12.81269 -17.59961,20.95899 -1.17166,3.50549 -2.77154,6.7565 -4.52344,9.94531 z m 26.49805,-43.03125 c 4.28333,-7.55127 10.78739,-14.72958 15.92383,-21.80859 2.78552,-8.71225 7.17462,-15.80765 11.38281,-23.56446 V 381.125 c 0,-4.27481 1.33399,-6.34189 9.01953,-6.61914 1.93402,-2.64835 3.50495,-5.29752 5.05274,-7.88477 h -54.86133 v 6.48438 c 12.11731,0.51199 13.48242,1.3663 13.48242,10.07031 z m 36.32617,-60.53125 c -1.12957,1.54678 -2.37295,3.09006 -3.83203,4.61133 -1.59854,3.76788 -3.37842,7.21225 -5.1875,10.54687 v 32.9336 h 8.53321 c 17.23733,0 22.69921,-10.24091 22.69921,-24.40625 0,-17.40802 -8.70324,-23.72266 -20.30859,-23.72266 -0.67871,0 -1.30527,0.0155 -1.9043,0.0371 z m 110.24219,10.9043 c -0.0178,0.0195 -0.0438,0.0676 -0.0781,0.15429 -0.0331,0.96155 0.20288,-0.29086 0.0781,-0.15429 z m -0.25781,1.42382 0.11719,0.10157 z m -22.1875,22.12891 0.28906,0.0156 z m -20.54688,4.00781 0.63672,0.0156 z m -5.5664,15.10547 0.11523,0.10156 z m -0.16211,1.60352 0.11719,0.10156 z m -70.54102,0.76953 v 37.7168 c 0,8.52597 1.37586,9.513 12.81836,10.03125 0.0129,-0.0314 0.0355,-0.10062 0.0469,-0.13086 h 21.62109 c -2.5451,-2.57477 -4.38,-5.98917 -5.81445,-10.41211 -2.73068,-8.70398 -4.09558,-17.92124 -5.46094,-23.89453 -2.04797,-9.21601 -6.82602,-13.31055 -15.35938,-13.31055 h -7.85159 z m 73.75,51.54492 0.11719,0.10156 z m -0.64258,6.09766 0.11719,0.10156 z m -1.12695,20.53906 0.11524,0.0996 z m 0,1.28516 0.11524,0.0996 z m 1.44531,6.09765 0.11524,0.0996 z m 0,1.12305 0.11524,0.0996 z m 0.48047,5.61719 0.11524,0.0976 z m -42.36328,28.24218 0.11524,0.0996 z m 22.30469,8.34375 0.11719,0.0996 z m -144.42188,12.35743 0.11524,0.0996 z m -31.01367,11.05468 0.28906,0.0234 z m 178.92774,14.22852 c -0.0157,-0.005 -0.044,0.0607 -0.0879,0.24414 0.002,1.13324 0.15588,-0.22131 0.0879,-0.24414 z m -88.99805,7.18945 -0.18945,0.20508 z m 32.07617,0.58203 0.11719,0.0996 z m 3.61719,15.29102 c -0.0164,-0.0231 -0.0414,0.0247 -0.0742,0.20898 0.0984,0.55304 0.12341,-0.13983 0.0742,-0.20898 z m -9.11524,4.43164 0.28907,0.0215 z m -1.12304,0.16016 0.28906,0.0234 z" /></g></g></g><g
     transform="matrix(0.31999998,0,0,0.31999998,0.04040472,7.6866622)"
     id="g92"><g
       clip-path="url(#clipPath98)"
       id="g94"><g
         transform="matrix(5.5454445,-1.6509267,1.6509267,5.5454445,451.29504,-647.88397)"
         id="g100"><path
           inkscape:connector-curvature="0"
           id="path102"
           style="fill:#729fcf;fill-opacity:1;fill-rule:nonzero;stroke:none"
           d="m 45.269451,150.41754 c -4e-6,0.60793 -0.05931,1.21001 -0.17791,1.80624 -0.118602,0.59624 -0.294223,1.17519 -0.526867,1.73685 -0.232643,0.56166 -0.517837,1.09523 -0.855587,1.60071 -0.337745,0.50548 -0.721553,0.97314 -1.151424,1.40301 -0.429871,0.42986 -0.897545,0.81366 -1.403019,1.15142 -0.505474,0.33775 -1.039036,0.62294 -1.600689,0.85559 -0.561653,0.23263 -1.140602,0.40826 -1.736847,0.52687 -0.596248,0.11861 -1.198334,0.1779 -1.806259,0.17792 -0.607929,-2e-5 -1.210022,-0.0593 -1.806271,-0.17792 -0.596244,-0.11861 -1.175193,-0.29424 -1.736847,-0.52687 -0.561651,-0.23265 -1.095214,-0.51784 -1.600688,-0.85559 -0.505475,-0.33776 -0.973147,-0.72156 -1.403018,-1.15142 -0.42987,-0.42987 -0.81368,-0.89753 -1.151428,-1.40301 -0.337745,-0.50548 -0.62294,-1.03905 -0.855585,-1.60071 -0.232643,-0.56166 -0.408266,-1.14061 -0.526869,-1.73685 -0.118599,-0.59623 -0.177898,-1.19831 -0.177896,-1.80624 -2e-6,-0.60794 0.0593,-1.21004 0.177902,-1.80627 0.118599,-0.59627 0.29422,-1.17522 0.526863,-1.73687 0.232645,-0.56166 0.51784,-1.09521 0.855587,-1.60069 0.337748,-0.50546 0.721556,-0.97313 1.151426,-1.403 0.429871,-0.42987 0.897543,-0.81367 1.403018,-1.15143 0.505474,-0.33775 1.039037,-0.62294 1.600688,-0.85559 0.561654,-0.23265 1.140603,-0.40826 1.736847,-0.52687 0.596249,-0.11859 1.198342,-0.17788 1.806271,-0.17788 0.607925,0 1.210011,0.0593 1.806259,0.17788 0.596245,0.11861 1.175194,0.29422 1.736847,0.52687 0.561653,0.23265 1.095215,0.51784 1.600689,0.85559 0.505474,0.33776 0.973148,0.72156 1.403019,1.15143 0.429871,0.42987 0.813679,0.89754 1.151428,1.403 0.337746,0.50548 0.62294,1.03903 0.855583,1.60069 0.232644,0.56165 0.408268,1.1406 0.526871,1.73687 0.118603,0.59623 0.177902,1.19833 0.177906,1.80627 z" /><path
           inkscape:connector-curvature="0"
           id="path104"
           style="fill:none;stroke:#204a87;stroke-width:1;stroke-linecap:butt;stroke-linejoin:miter;stroke-miterlimit:10;stroke-dasharray:none;stroke-opacity:1"
           d="m 45.269451,150.41754 c -4e-6,0.60793 -0.05931,1.21001 -0.17791,1.80624 -0.118602,0.59624 -0.294223,1.17519 -0.526867,1.73685 -0.232643,0.56166 -0.517837,1.09523 -0.855587,1.60071 -0.337745,0.50548 -0.721553,0.97314 -1.151424,1.40301 -0.429871,0.42986 -0.897545,0.81366 -1.403019,1.15142 -0.505474,0.33775 -1.039036,0.62294 -1.600689,0.85559 -0.561653,0.23263 -1.140602,0.40826 -1.736847,0.52687 -0.596248,0.11861 -1.198334,0.1779 -1.806259,0.17792 -0.607929,-2e-5 -1.210022,-0.0593 -1.806271,-0.17792 -0.596244,-0.11861 -1.175193,-0.29424 -1.736847,-0.52687 -0.561651,-0.23265 -1.095214,-0.51784 -1.600688,-0.85559 -0.505475,-0.33776 -0.973147,-0.72156 -1.403018,-1.15142 -0.42987,-0.42987 -0.81368,-0.89753 -1.151428,-1.40301 -0.337745,-0.50548 -0.62294,-1.03905 -0.855585,-1.60071 -0.232643,-0.56166 -0.408266,-1.14061 -0.526869,-1.73685 -0.118599,-0.59623 -0.177898,-1.19831 -0.177896,-1.80624 -2e-6,-0.60794 0.0593,-1.21004 0.177902,-1.80627 0.118599,-0.59627 0.29422,-1.17522 0.526863,-1.73687 0.232645,-0.56166 0.51784,-1.09521 0.855587,-1.60069 0.337748,-0.50546 0.721556,-0.97313 1.151426,-1.403 0.429871,-0.42987 0.897543,-0.81367 1.403018,-1.15143 0.505474,-0.33775 1.039037,-0.62294 1.600688,-0.85559 0.561654,-0.23265 1.140603,-0.40826 1.736847,-0.52687 0.596249,-0.11859 1.198342,-0.17788 1.806271,-0.17788 0.607925,0 1.210011,0.0593 1.806259,0.17788 0.596245,0.11861 1.175194,0.29422 1.736847,0.52687 0.561653,0.23265 1.095215,0.51784 1.600689,0.85559 0.505474,0.33776 0.973148,0.72156 1.403019,1.15143 0.429871,0.42987 0.813679,0.89754 1.151428,1.403 0.337746,0.50548 0.62294,1.03903 0.855583,1.60069 0.232644,0.56165 0.408268,1.1406 0.526871,1.73687 0.118603,0.59623 0.177902,1.19833 0.177906,1.80627 z" /><path
           inkscape:connector-curvature="0"
           id="path106"
           style="fill:#729fcf;fill-opacity:1;fill-rule:nonzero;stroke:none"
           d="m 26.459066,166.30042 c 0,0.60792 -0.0593,1.21 -0.177902,1.80624 -0.118603,0.59625 -0.294226,1.1752 -0.526871,1.73685 -0.232645,0.56164 -0.517841,1.09521 -0.855587,1.60069 -0.337747,0.50548 -0.721555,0.97314 -1.151424,1.40303 -0.429871,0.42985 -0.897543,0.81367 -1.403017,1.15143 -0.505474,0.33774 -1.039038,0.62292 -1.600691,0.85557 -0.561651,0.23265 -1.140602,0.40828 -1.736849,0.52689 -0.596246,0.11861 -1.198333,0.1779 -1.806261,0.1779 -0.607929,0 -1.210017,-0.0593 -1.806265,-0.1779 -0.596247,-0.11861 -1.175197,-0.29424 -1.736849,-0.52689 -0.561654,-0.23265 -1.095217,-0.51783 -1.60069,-0.85559 -0.505474,-0.33775 -0.973147,-0.72156 -1.403016,-1.15141 -0.429871,-0.42989 -0.8136801,-0.89755 -1.1514267,-1.40303 -0.3377476,-0.50548 -0.6229429,-1.03905 -0.855587,-1.60069 -0.2326441,-0.56165 -0.4082661,-1.1406 -0.5268669,-1.73685 -0.1186009,-0.59624 -0.1779018,-1.19832 -0.1779013,-1.80624 -5e-7,-0.60793 0.0593,-1.21003 0.1779013,-1.80628 0.1186008,-0.59624 0.2942228,-1.17519 0.5268669,-1.73685 0.2326441,-0.56164 0.5178394,-1.09521 0.855587,-1.60069 0.3377466,-0.50548 0.7215557,-0.97314 1.1514267,-1.403 0.429869,-0.42987 0.897542,-0.81367 1.403015,-1.15143 0.505474,-0.33775 1.039037,-0.62294 1.600691,-0.85559 0.561652,-0.23265 1.140602,-0.40826 1.736849,-0.52685 0.596248,-0.11861 1.198336,-0.17791 1.806265,-0.17791 0.607928,0 1.210015,0.0593 1.806261,0.17791 0.596247,0.11859 1.175198,0.2942 1.736851,0.52685 0.561651,0.23265 1.095215,0.51784 1.600689,0.85559 0.505474,0.33776 0.973146,0.72156 1.403017,1.15143 0.429869,0.42986 0.813677,0.89752 1.151424,1.403 0.337746,0.50548 0.622942,1.03905 0.855587,1.60069 0.232645,0.56166 0.408268,1.14061 0.526871,1.73685 0.118601,0.59625 0.177902,1.19835 0.177902,1.80628 z" /><path
           inkscape:connector-curvature="0"
           id="path108"
           style="fill:none;stroke:#204a87;stroke-width:1;stroke-linecap:butt;stroke-linejoin:miter;stroke-miterlimit:10;stroke-dasharray:none;stroke-opacity:1"
           d="m 26.459066,166.30042 c 0,0.60792 -0.0593,1.21 -0.177902,1.80624 -0.118603,0.59625 -0.294226,1.1752 -0.526871,1.73685 -0.232645,0.56164 -0.517841,1.09521 -0.855587,1.60069 -0.337747,0.50548 -0.721555,0.97314 -1.151424,1.40303 -0.429871,0.42985 -0.897543,0.81367 -1.403017,1.15143 -0.505474,0.33774 -1.039038,0.62292 -1.600691,0.85557 -0.561651,0.23265 -1.140602,0.40828 -1.736849,0.52689 -0.596246,0.11861 -1.198333,0.1779 -1.806261,0.1779 -0.607929,0 -1.210017,-0.0593 -1.806265,-0.1779 -0.596247,-0.11861 -1.175197,-0.29424 -1.736849,-0.52689 -0.561654,-0.23265 -1.095217,-0.51783 -1.60069,-0.85559 -0.505474,-0.33775 -0.973147,-0.72156 -1.403016,-1.15141 -0.429871,-0.42989 -0.8136801,-0.89755 -1.1514267,-1.40303 -0.3377476,-0.50548 -0.6229429,-1.03905 -0.855587,-1.60069 -0.2326441,-0.56165 -0.4082661,-1.1406 -0.5268669,-1.73685 -0.1186009,-0.59624 -0.1779018,-1.19832 -0.1779013,-1.80624 -5e-7,-0.60793 0.0593,-1.21003 0.1779013,-1.80628 0.1186008,-0.59624 0.2942228,-1.17519 0.5268669,-1.73685 0.2326441,-0.56164 0.5178394,-1.09521 0.855587,-1.60069 0.3377466,-0.50548 0.7215557,-0.97314 1.1514267,-1.403 0.429869,-0.42987 0.897542,-0.81367 1.403015,-1.15143 0.505474,-0.33775 1.039037,-0.62294 1.600691,-0.85559 0.561652,-0.23265 1.140602,-0.40826 1.736849,-0.52685 0.596248,-0.11861 1.198336,-0.17791 1.806265,-0.17791 0.607928,0 1.210015,0.0593 1.806261,0.17791 0.596247,0.11859 1.175198,0.2942 1.736851,0.52685 0.561651,0.23265 1.095215,0.51784 1.600689,0.85559 0.505474,0.33776 0.973146,0.72156 1.403017,1.15143 0.429869,0.42986 0.813677,0.89752 1.151424,1.403 0.337746,0.50548 0.622942,1.03905 0.855587,1.60069 0.232645,0.56166 0.408268,1.14061 0.526871,1.73685 0.118601,0.59625 0.177902,1.19835 0.177902,1.80628 z" /><path
           inkscape:connector-curvature="0"
           id="path110"
           style="fill:#729fcf;fill-opacity:1;fill-rule:nonzero;stroke:none"
           d="m 21.86747,142.22198 c -2e-6,0.60793 -0.0593,1.21001 -0.177902,1.80625 -0.118601,0.59624 -0.294224,1.17518 -0.526869,1.73685 -0.232645,0.56164 -0.51784,1.09521 -0.855587,1.60069 -0.337748,0.50548 -0.721556,0.97314 -1.151425,1.40303 -0.42987,0.42987 -0.897543,0.81367 -1.403019,1.15143 -0.505474,0.33775 -1.039037,0.62294 -1.600689,0.85559 -0.561653,0.23265 -1.140603,0.40826 -1.736849,0.52685 -0.596247,0.11861 -1.198334,0.17792 -1.806262,0.17792 -0.60793,0 -1.210018,-0.0593 -1.806264,-0.17792 -0.596248,-0.11859 -1.1751988,-0.2942 -1.736851,-0.52685 -0.5616532,-0.23265 -1.0952168,-0.51784 -1.6006909,-0.85559 -0.5054736,-0.33776 -0.9731459,-0.72156 -1.403016,-1.15143 -0.4298702,-0.42989 -0.8136793,-0.89755 -1.1514264,-1.40303 -0.3377471,-0.50548 -0.6229424,-1.03905 -0.8555865,-1.60069 -0.2326441,-0.56167 -0.4082665,-1.14061 -0.5268676,-1.73685 -0.1186009,-0.59624 -0.1779013,-1.19832 -0.1779011,-1.80625 -2e-7,-0.60792 0.0593,-1.21002 0.1779011,-1.80629 0.1186011,-0.59623 0.2942235,-1.17518 0.5268676,-1.73684 0.2326441,-0.56166 0.5178394,-1.09522 0.8555865,-1.60068 0.3377471,-0.50548 0.7215562,-0.97314 1.1514264,-1.40301 0.4298701,-0.42988 0.8975424,-0.81368 1.403016,-1.15143 0.5054741,-0.33776 1.0390377,-0.62294 1.6006909,-0.85559 0.5616522,-0.23265 1.140602,-0.40827 1.73685,-0.52687 0.596247,-0.1186 1.198335,-0.17789 1.806265,-0.17789 0.607928,0 1.210015,0.0593 1.806261,0.17789 0.596247,0.1186 1.175196,0.29422 1.736849,0.52687 0.561651,0.23265 1.095214,0.51783 1.60069,0.85559 0.505476,0.33775 0.973149,0.72155 1.403019,1.15143 0.429869,0.42987 0.813677,0.89753 1.151425,1.403 0.337747,0.50547 0.622942,1.03903 0.855587,1.60069 0.232645,0.56166 0.408268,1.14061 0.526869,1.73684 0.1186,0.59627 0.1779,1.19837 0.177902,1.80629 z" /><path
           inkscape:connector-curvature="0"
           id="path112"
           style="fill:none;stroke:#204a87;stroke-width:1;stroke-linecap:butt;stroke-linejoin:miter;stroke-miterlimit:10;stroke-dasharray:none;stroke-opacity:1"
           d="m 21.86747,142.22198 c -2e-6,0.60793 -0.0593,1.21001 -0.177902,1.80625 -0.118601,0.59624 -0.294224,1.17518 -0.526869,1.73685 -0.232645,0.56164 -0.51784,1.09521 -0.855587,1.60069 -0.337748,0.50548 -0.721556,0.97314 -1.151425,1.40303 -0.42987,0.42987 -0.897543,0.81367 -1.403019,1.15143 -0.505474,0.33775 -1.039037,0.62294 -1.600689,0.85559 -0.561653,0.23265 -1.140603,0.40826 -1.736849,0.52685 -0.596247,0.11861 -1.198334,0.17792 -1.806262,0.17792 -0.60793,0 -1.210018,-0.0593 -1.806264,-0.17792 -0.596248,-0.11859 -1.1751988,-0.2942 -1.736851,-0.52685 -0.5616532,-0.23265 -1.0952168,-0.51784 -1.6006909,-0.85559 -0.5054736,-0.33776 -0.9731459,-0.72156 -1.403016,-1.15143 -0.4298702,-0.42989 -0.8136793,-0.89755 -1.1514264,-1.40303 -0.3377471,-0.50548 -0.6229424,-1.03905 -0.8555865,-1.60069 -0.2326441,-0.56167 -0.4082665,-1.14061 -0.5268676,-1.73685 -0.1186009,-0.59624 -0.1779013,-1.19832 -0.1779011,-1.80625 -2e-7,-0.60792 0.0593,-1.21002 0.1779011,-1.80629 0.1186011,-0.59623 0.2942235,-1.17518 0.5268676,-1.73684 0.2326441,-0.56166 0.5178394,-1.09522 0.8555865,-1.60068 0.3377471,-0.50548 0.7215562,-0.97314 1.1514264,-1.40301 0.4298701,-0.42988 0.8975424,-0.81368 1.403016,-1.15143 0.5054741,-0.33776 1.0390377,-0.62294 1.6006909,-0.85559 0.5616522,-0.23265 1.140602,-0.40827 1.73685,-0.52687 0.596247,-0.1186 1.198335,-0.17789 1.806265,-0.17789 0.607928,0 1.210015,0.0593 1.806261,0.17789 0.596247,0.1186 1.175196,0.29422 1.736849,0.52687 0.561651,0.23265 1.095214,0.51783 1.60069,0.85559 0.505476,0.33775 0.973149,0.72155 1.403019,1.15143 0.429869,0.42987 0.813677,0.89753 1.151425,1.403 0.337747,0.50547 0.622942,1.03903 0.855587,1.60069 0.232645,0.56166 0.408268,1.14061 0.526869,1.73684 0.1186,0.59627 0.1779,1.19837 0.177902,1.80629 z" /></g><g
         transform="matrix(5.7859755,0,0,5.7859755,451.29504,-647.88397)"
         id="g114"><path
           inkscape:connector-curvature="0"
           id="path116"
           style="fill:#204a87;fill-opacity:1;fill-rule:evenodd;stroke:none"
           d="m 56.922401,140.93353 2.756783,5.32405" /><path
           inkscape:connector-curvature="0"
           id="path118"
           style="fill:none;stroke:#204a87;stroke-width:1;stroke-linecap:butt;stroke-linejoin:miter;stroke-miterlimit:10;stroke-dasharray:none;stroke-opacity:1"
           d="m 56.922401,140.93353 2.756783,5.32405" /><path
           inkscape:connector-curvature="0"
           id="path120"
           style="fill:#204a87;fill-opacity:1;fill-rule:evenodd;stroke:none"
           d="m 72.357185,141.63266 -3.345199,5.10333" /><path
           inkscape:connector-curvature="0"
           id="path122"
           style="fill:none;stroke:#204a87;stroke-width:1;stroke-linecap:butt;stroke-linejoin:miter;stroke-miterlimit:10;stroke-dasharray:none;stroke-opacity:1"
           d="m 72.357185,141.63266 -3.345199,5.10333" /><path
           inkscape:connector-curvature="0"
           id="path124"
           style="fill:#204a87;fill-opacity:1;fill-rule:evenodd;stroke:none"
           d="m 68.184853,133.44974 -6.271622,-0.29817" /><path
           inkscape:connector-curvature="0"
           id="path126"
           style="fill:none;stroke:#204a87;stroke-width:1;stroke-linecap:butt;stroke-linejoin:miter;stroke-miterlimit:10;stroke-dasharray:none;stroke-opacity:1"
           d="m 68.184853,133.44974 -6.271622,-0.29817" /></g></g></g><g
     transform="matrix(0.31999998,0,0,0.31999998,0.04040472,7.6866622)"
     id="g128"><g
       clip-path="url(#clipPath134)"
       id="g130"><g
         transform="matrix(0.62256896,0,0,0.6238603,1073.9639,-156.43855)"
         id="g136"><path
           inkscape:connector-curvature="0"
           id="path138"
           style="fill:#efc743;fill-opacity:1;fill-rule:nonzero;stroke:none"
           d="m 773,548 c -10.76062,-35.73309 -66.4635,-67 -133,-67 -67.86981,0 -122.23938,31.26691 -133,67 L 494.16666,559 476,524 l -14,-59 24,10 c 6.56268,-6.64066 11.242,-11.81049 28,-21 l 16,-33 27,21 c 18.17059,-4.32547 36.23712,-8.85904 57,-8 l 26,-25 26,25 c 20.76288,-0.85904 38.82941,3.67453 57,8 l 27,-21 16,33 c 16.758,9.18951 21.43732,14.35934 28,21 l 24,-10 -14,59 -18.16669,35 z" /><path
           inkscape:connector-curvature="0"
           id="path140"
           style="fill:#000000;fill-opacity:1;fill-rule:nonzero;stroke:none"
           d="m 788,551 -15,-4 -27,35 -37,11 -69,-39 -69,39 -37,-11 -27,-35 -15,4 -16,-28 31,88 c 21.90143,45.58807 89.36139,68 133,68 43.63861,0 111.09857,-22.41193 133,-68 l 31,-88 z" /></g></g></g><path
     sodipodi:open="true"
     d="M 18.299695,25.086522 A 57.571747,57.571972 0 0 1 61.292535,8.7120634 57.571747,57.571972 0 0 1 102.55361,29.059849"
     sodipodi:end="5.5815629"
     sodipodi:start="3.9374628"
     sodipodi:ry="57.571972"
     sodipodi:rx="57.571747"
     sodipodi:cy="66.220123"
     sodipodi:cx="58.580536"
     sodipodi:type="arc"
     id="path1262"
     style="opacity:1;fill:none;fill-opacity:1;stroke:#ffffff;stroke-width:2.75527549;stroke-linecap:round;stroke-linejoin:round;stroke-miterlimit:4;stroke-dasharray:none;stroke-dashoffset:0;stroke-opacity:1" /><text
     transform="translate(0.04040472,11.68666)"
     y="2"
     id="text1231"
     style="font-style:normal;font-variant:normal;font-weight:normal;font-stretch:normal;font-size:40px;line-height:1.25;font-family:'Source Sans Pro';-inkscape-font-specification:'Source Sans Pro, Normal';font-variant-ligatures:normal;font-variant-caps:normal;font-variant-numeric:normal;font-feature-settings:normal;text-align:start;letter-spacing:0px;word-spacing:0px;writing-mode:lr-tb;text-anchor:start;fill:#000000;fill-opacity:1;stroke:none"
     xml:space="preserve"><textPath
       id="textPath1247"
       xlink:href="#path52"><tspan
   id="tspan1229"
   style="font-size:17.33333397px;fill:#000000;stroke:none">SOFTWARE</tspan></textPath></text>
<path
     style="opacity:1;fill:none;fill-opacity:1;stroke:#ffffff;stroke-width:2.75527549;stroke-linecap:round;stroke-linejoin:round;stroke-miterlimit:4;stroke-dasharray:none;stroke-dashoffset:0;stroke-opacity:1"
     id="path886"
     sodipodi:type="arc"
     sodipodi:cx="265.04846"
     sodipodi:cy="66.057953"
     sodipodi:rx="57.571747"
     sodipodi:ry="57.571972"
     sodipodi:start="4.1119957"
     sodipodi:end="5.3546701"
     d="m 232.52232,18.554542 a 57.571747,57.571972 0 0 1 67.01297,1.403725"
     sodipodi:open="true" /><path
     sodipodi:open="true"
     d="M 429.67367,26.381319 A 57.571747,57.571972 0 0 1 473.07344,8.5374437 57.571747,57.571972 0 0 1 515.33858,28.923802"
     sodipodi:end="5.5815629"
     sodipodi:start="3.9025562"
     sodipodi:ry="57.571972"
     sodipodi:rx="57.571747"
     sodipodi:cy="66.084076"
     sodipodi:cx="471.36551"
     sodipodi:type="arc"
     id="path888"
     style="opacity:1;fill:none;fill-opacity:1;stroke:#ffffff;stroke-width:2.75527549;stroke-linecap:round;stroke-linejoin:round;stroke-miterlimit:4;stroke-dasharray:none;stroke-dashoffset:0;stroke-opacity:1" /><text
     transform="translate(0.04040472,11.68666)"
     y="2"
     id="text1239"
     style="font-style:normal;font-variant:normal;font-weight:normal;font-stretch:normal;font-size:40px;line-height:1.25;font-family:'Source Sans Pro';-inkscape-font-specification:'Source Sans Pro, Normal';font-variant-ligatures:normal;font-variant-caps:normal;font-variant-numeric:normal;font-feature-settings:normal;text-align:start;letter-spacing:0px;word-spacing:0px;writing-mode:lr-tb;text-anchor:start;fill:#000000;fill-opacity:1;stroke:none"
     xml:space="preserve"><textPath
       id="textPath1257"
       xlink:href="#path78"><tspan
   id="tspan1237"
   style="font-size:17.33333397px;fill:#000000;stroke:none">LANGUAGE</tspan></textPath></text>
<text
     transform="translate(0.04040472,9.6866602)"
     xml:space="preserve"
     style="font-style:normal;font-variant:normal;font-weight:normal;font-stretch:normal;font-size:40px;line-height:1.25;font-family:'Source Sans Pro';-inkscape-font-specification:'Source Sans Pro, Normal';font-variant-ligatures:normal;font-variant-caps:normal;font-variant-numeric:normal;font-feature-settings:normal;text-align:start;letter-spacing:0px;word-spacing:0px;writing-mode:lr-tb;text-anchor:start;fill:#000000;fill-opacity:1;stroke:none"
     id="text1235"><textPath
       id="textPath1254"
       xlink:href="#path74"><tspan
   style="font-size:17.33333397px;fill:#000000;stroke:none"
   id="tspan1233">LIBRARY</tspan></textPath></text>
</g></svg>