<?xml version="1.0" encoding="UTF-8" standalone="no"?>
<!-- Created with Inkscape (http://www.inkscape.org/) -->

<svg
   xmlns:dc="http://purl.org/dc/elements/1.1/"
   xmlns:cc="http://creativecommons.org/ns#"
   xmlns:rdf="http://www.w3.org/1999/02/22-rdf-syntax-ns#"
   xmlns:svg="http://www.w3.org/2000/svg"
   xmlns="http://www.w3.org/2000/svg"
   xmlns:sodipodi="http://sodipodi.sourceforge.net/DTD/sodipodi-0.dtd"
   xmlns:inkscape="http://www.inkscape.org/namespaces/inkscape"
   width="74.758636mm"
   height="74.175316mm"
   viewBox="0 0 74.758636 74.175316"
   version="1.1"
   id="svg2032"
   inkscape:version="0.92.3 (2405546, 2018-03-11)"
   sodipodi:docname="logo.svg">
  <defs
     id="defs2026" />
  <sodipodi:namedview
     id="base"
     pagecolor="#ffffff"
     bordercolor="#666666"
     borderopacity="1.0"
     inkscape:pageopacity="0.0"
     inkscape:pageshadow="2"
     inkscape:zoom="1"
     inkscape:cx="145.43438"
     inkscape:cy="65.46671"
     inkscape:document-units="mm"
     inkscape:current-layer="layer1"
     showgrid="false"
     inkscape:window-width="2866"
     inkscape:window-height="1889"
     inkscape:window-x="134"
     inkscape:window-y="55"
     inkscape:window-maximized="1"
     inkscape:snap-text-baseline="true"
     fit-margin-top="0"
     fit-margin-left="0"
     fit-margin-right="0"
     fit-margin-bottom="0" />
  <metadata
     id="metadata2029">
    <rdf:RDF>
      <cc:Work
         rdf:about="">
        <dc:format>image/svg+xml</dc:format>
        <dc:type
           rdf:resource="http://purl.org/dc/dcmitype/StillImage" />
        <dc:title></dc:title>
      </cc:Work>
    </rdf:RDF>
  </metadata>
  <g
     inkscape:label="Layer 1"
     inkscape:groupmode="layer"
     id="layer1"
     transform="translate(-66.520488,-91.646085)">
    <path
       style="fill:#000000;stroke-width:0.16046982"
       d="m 468.23047,346.37891 0.55664,0.008 z m -7.99609,1.35742 c -6.35884,0.082 -12.72546,1.22489 -19.40626,4.92383 -5.93729,3.89945 -8.99164,8.78865 -12.08593,13.96093 h 4.35937 c 16.72536,0 26.45413,3.24301 32.93946,8.875 6.144,5.632 8.5332,12.96984 8.5332,21.67383 0,14.84803 -11.9458,25.9415 -28.8418,28.16016 v 0.33984 c 17.5787,4.43732 20.81964,15.70016 23.20899,29.35352 1.536,8.87463 4.09661,15.19036 8.36328,19.45703 2.04801,2.04801 4.94948,3.58307 8.02148,3.75391 v 6.48632 h -12.6289 c -1.03624,0 -2.02922,-0.0186 -2.9961,-0.0488 -9.97175,0.55275 -11.27539,1.83684 -11.27539,9.94921 v 35.9336 c 0.045,-0.0908 0.0924,-0.17002 0.13672,-0.26367 11.16026,-0.28445 3.70953,17.80389 10.33398,25.07812 -2.87822,14.30657 3.83546,27.66737 3.63477,41.80469 4.07913,1.73408 0.7671,16.14353 10.08594,19.58203 4.50338,-5.86454 17.29578,1.74894 21.57617,-7.33984 -3.264,-11.97003 -17.95637,-18.20322 -14.19922,-32.60352 -7.00464,-10.84278 -0.86943,-24.05014 -3.14062,-35.94727 1.29887,-20.48235 -1.71956,-40.97295 0.8125,-61.41211 -4.55683,-9.48971 -10.13068,-18.48637 -7.14258,-30.58789 7.04254,-8.88472 0.69162,-23.41788 6.92773,-33.39062 9.58965,-1.83417 19.88991,-8.55365 28.57617,-8.04492 8.83004,-4.07029 23.79957,-21.37046 12.21875,-27.53907 -9.47625,-5.16937 -31.028,-3.13134 -30.33593,-18.08203 -7.08299,3.36372 -0.8769,-3.65597 -6.75977,-3.12695 -4.01722,-7.95084 -12.34543,-4.04777 -15.94531,-9.91602 -5.08306,-0.51486 -10.02494,-1.0931 -14.9707,-1.02929 z m -1.8086,182.81836 z m -25.9414,-35.5918 h -0.51172 L 396.30273,593.0957 H 386.06445 L 350.3125,497.48242 c -0.39173,0.92881 -0.77105,1.86964 -1.11914,2.83789 -0.10567,0.3045 -0.21962,0.60403 -0.33594,0.90235 v 51.9375 c 0,13.824 0.17085,20.47904 0.85352,26.62304 0.512,5.97332 2.3893,8.70363 7.16797,9.04492 l 9.21679,0.85352 v 6.48633 h -38.44922 c -1.87964,7.03607 8.28302,8.92853 10.50977,3.74414 7.84539,-2.50757 6.63542,1.98563 9.77148,5.69531 8.25257,3.15436 25.37081,9.22332 30.13672,1.63281 5.4898,1.9468 -0.0172,-6.29862 6.44922,-3.75976 8.72988,-0.15065 9.77405,4.49856 5.61328,11.70117 -4.81897,8.50617 3.55399,7.01149 8.25977,11.54492 4.43667,-3.24132 10.09703,-3.75038 15.33398,-2.50586 -5.24814,-5.06124 1.4566,-1.86507 3.98242,-2.69922 1.772,-5.96107 -4.7245,-17.5153 -4.82617,-20.97656 -4.18745,-12.57762 13.83371,-11.36975 19.10547,-21.1289 1.09084,-27.46873 0.50196,-56.47433 0.50196,-84.45313 z m -104.8379,101.20508 c 0.11709,-0.4383 0.27677,-0.89529 0.49219,-1.37305 -0.92486,-0.66846 -1.87427,-1.30084 -2.83203,-1.91797 v 3.29102 z m -2.33984,-3.29102 v -3.19531 l 5.97266,-0.85352 c 3.92533,-0.51201 5.63253,-3.0716 6.14453,-9.04492 0.68267,-5.97335 0.85351,-12.6284 0.85351,-26.62304 v -36.30469 c -3.86434,4.88139 -7.30276,9.95393 -7.91601,16.55664 -3.71074,13.43868 -11.12698,24.27563 -4.94141,38.27734 -7.67425,1.31034 -15.76861,-0.81585 -23.79687,-2.97265 v 10.89648 c 0,1.43839 0.0452,2.64602 0.16211,3.68945 8.31861,1.77049 16.35711,4.95789 23.52148,9.57422 z m -23.52148,-9.57422 c -4.09956,-0.87252 -8.26534,-1.40778 -12.42578,-1.59765 -4.18977,-0.0391 -10.00173,1.23044 -15.18165,1.36328 -0.54041,5.48413 -3.08178,6.17967 -13.34375,6.61328 v 6.48633 h 54.27149 v -6.48633 c -10.11488,-0.4274 -12.7297,-1.10825 -13.32031,-6.37891 z m -27.60743,-0.23437 c 0.0977,-0.99154 0.13868,-2.12234 0.13868,-3.45508 v -10.45703 c -4.4455,0.29825 -8.87906,1.02978 -11.9336,6.63672 1.02456,6.15445 6.01448,7.42363 11.79492,7.27539 z m 0.13868,-13.91211 c 4.33691,-0.29097 8.68554,-0.17009 11.77148,-3.76172 5.05908,0.48966 10.2831,1.91129 15.53516,3.32227 v -74.09571 c 0,-4.01522 0.30602,-6.34868 1.80859,-7.75976 3.86016,0.32504 7.52922,0.41992 10.79102,0.41992 5.98758,0 12.73805,-0.62829 19.44726,-1.81445 3.98184,1.05108 4.60742,3.35865 4.60742,9.15429 v 22.23438 c 3.91609,-4.94676 8.2661,-9.69817 10.58008,-15.63281 v -6.25977 h 0.51367 l 0.94141,2.51953 c 2.98538,-7.07842 7.09147,-13.11388 10.55273,-19.41406 h -5.17187 V 447.3457 c 0,-8.02133 1.3666,-8.87322 9.55859,-9.72656 v -6.48633 h -51.54101 v 6.48633 c 13.312,0.85334 14.67578,1.7057 14.67578,10.06836 v 24.06445 c 0,3.20485 -0.70392,5.17261 -3.16016,6.31641 h -0.43164 v 0.19531 c -2.01015,0.7914 -5.13056,1.10943 -9.68945,1.14844 v -1.34375 h -9.77735 C 282.99097,470.69582 281.625,435.44052 281.625,424.30664 c 0,-17.40801 4.26615,-52.39453 34.13281,-52.39453 18.944,0 26.96548,16.04141 31.74414,30.71875 h 6.48633 v -31.06055 c -10.752,-5.80266 -25.60132,-7.50976 -39.08398,-7.50976 v -0.002 c -54.61334,0 -63.48828,38.91283 -63.48828,62.46485 0,26.96534 10.07035,42.66707 23.04101,51.37109 0.0903,0.0605 0.18476,0.11178 0.27539,0.17188 h -13.89844 v 6.48437 c 12.11734,0.51201 13.48243,1.36629 13.48243,10.07031 z m 86.54882,-91.08789 h 8.98438 c 2.21867,7.33867 6.1436,17.40789 9.04492,25.08789 l 20.31055,52.39453 h 0.51172 l 14.50586,-39.93555 c 3.71187,-10.17335 7.85133,-22.0049 10.97265,-30.89257 h -51.31445 v -6.48633 c 12.11732,-0.51198 13.48242,-1.36434 13.48242,-10.06836 v -33.13086 c -2.22841,3.92858 -3.86665,7.95535 -4.375,12.12695 -1.28122,5.48096 -11.60256,12.81267 -17.59961,20.95899 -1.17165,3.5055 -2.77154,6.75651 -4.52344,9.94531 z m 26.49805,-43.03125 c 4.28332,-7.55127 10.78737,-14.72958 15.92383,-21.80859 2.78553,-8.71225 7.17462,-15.80764 11.38281,-23.56446 V 381.125 c 0,-4.27482 1.33398,-6.34188 9.01953,-6.61914 1.93402,-2.64836 3.50493,-5.29752 5.05274,-7.88477 h -54.86133 v 6.48438 c 12.11732,0.512 13.48242,1.3663 13.48242,10.07031 z m 36.32617,-60.53125 c -1.12957,1.54679 -2.37295,3.09006 -3.83203,4.61133 -1.59853,3.76787 -3.37842,7.21226 -5.1875,10.54687 v 32.9336 h 8.5332 c 17.23733,0 22.69922,-10.24092 22.69922,-24.40625 0,-17.40802 -8.70325,-23.72266 -20.30859,-23.72266 -0.6787,0 -1.30528,0.0155 -1.9043,0.0371 z m 110.24219,10.9043 c -0.0178,0.0195 -0.0438,0.0676 -0.0781,0.15429 -0.0331,0.96154 0.20289,-0.29085 0.0781,-0.15429 z m -0.25781,1.42382 0.11719,0.10157 z m -22.1875,22.12891 0.28906,0.0156 z m -20.54688,4.00781 0.63672,0.0156 z m -5.5664,15.10547 0.11523,0.10156 z m -0.16211,1.60352 0.11718,0.10156 z m -70.54102,0.76953 v 37.7168 c 0,8.52597 1.37584,9.513 12.81836,10.03125 0.0129,-0.0314 0.0355,-0.10063 0.0469,-0.13086 h 21.62109 c -2.5451,-2.57477 -4.38001,-5.98916 -5.81445,-10.41211 -2.73067,-8.70399 -4.09559,-17.92122 -5.46094,-23.89453 -2.04798,-9.216 -6.82603,-13.31055 -15.35938,-13.31055 z m 73.75,51.54492 0.11719,0.10156 z m -0.64258,6.09766 0.11719,0.10156 z m -1.12695,20.53906 0.11523,0.0996 z m 0,1.28516 0.11523,0.0996 z m 1.44531,6.09765 0.11524,0.0996 z m 0,1.12305 0.11524,0.0996 z m 0.48047,5.61719 0.11524,0.0976 z m -42.36328,28.24218 0.11523,0.0996 z m 22.30469,8.34375 0.11719,0.0996 z m -144.42188,12.35743 0.11524,0.0996 z m -31.01367,11.05468 0.28906,0.0234 z m 178.92774,14.22852 c -0.0157,-0.005 -0.044,0.0607 -0.0879,0.24414 0.002,1.13327 0.15589,-0.22131 0.0879,-0.24414 z m -88.99805,7.18945 -0.18945,0.20508 z m 32.07617,0.58203 0.11719,0.0996 z m 3.61719,15.29102 c -0.0164,-0.0231 -0.0414,0.0247 -0.0742,0.20898 0.0984,0.55304 0.1234,-0.13981 0.0742,-0.20898 z m -9.11524,4.43164 0.28907,0.0215 z m -1.12304,0.16016 0.28906,0.0234 z"
       transform="scale(0.26458333)"
       id="path5207"
       inkscape:connector-curvature="0"
       sodipodi:nodetypes="ccccccscscccsccscsccccccccccccccccccccccccccscccccccccccccccccccccccccsccccsccccccccccccccccccscscscccccccsccccssccccccsscccccsccccsccccccccccscccccccsccccscccccsssccccccccccccccccccscscccccscccccccccccccccccccccccccccccccccccccccccccccccccccccc" />
    <text
       xml:space="preserve"
       style="font-style:normal;font-variant:normal;font-weight:normal;font-stretch:normal;font-size:10.58333302px;line-height:1.25;font-family:'Source Sans Pro';-inkscape-font-specification:'Source Sans Pro, Normal';font-variant-ligatures:normal;font-variant-caps:normal;font-variant-numeric:normal;font-feature-settings:normal;text-align:start;letter-spacing:0px;word-spacing:0px;writing-mode:lr-tb;text-anchor:start;fill:#000000;fill-opacity:1;stroke:none;stroke-width:0.26458332"
       x="36.922375"
       y="132.20012"
       id="text2688"><tspan
         sodipodi:role="line"
         id="tspan2686"
         x="36.922375"
         y="141.46054"
         style="stroke-width:0.26458332"></tspan></text>
  </g>
</svg>
